# xmcd
#
# Track frame offsets:
#  150
#  15616
#  34700
#  51733
#  67238
#  86343
#  105491
#  124076
#  141644
#  158143
#  177454
#  197614
#  214976
#  230218
#  247955
#  274181
#  289909
#  308022
#
# Disc length: 4301 seconds
#
# Revision: 0
# Processed by: cddbd v1.4PL0 Copyright (c) Steve Scherf et al.
# Submitted via: AltoMP3_Maker 3.0
#
DISCID=1610cb12
DTITLE=The Corrs - Best Of The Corrs
DYEAR=1900
DGENRE=
TTITLE0=Would You Be Happier? (Previously Unreleased)
TTITLE1=So Young (K-Klass Remix)
TTITLE2=Runaway
TTITLE3=Breathless
TTITLE4=Radio (Unplugged)
TTITLE5=What Can I Do (Tin Tin Out Remix)
TTITLE6=The Right Time
TTITLE7=I Never Loved You Anyway
TTITLE8=Irresistible
TTITLE9=Forgiven, Not Forgotten
TTITLE10=Lough Erin Shore (Unplugged)
TTITLE11=Only When I Sleep
TTITLE12=Love To Love You
TTITLE13=All The Love In The World (Remix)
TTITLE14=Everybody Hurts (Unplugged)
TTITLE15=Give Me A Reason
TTITLE16=Dreams
TTITLE17=Make You Mine (Previously Unreleased)
EXTD=
EXTT0=
EXTT1=
EXTT2=
EXTT3=
EXTT4=
EXTT5=
EXTT6=
EXTT7=
EXTT8=
EXTT9=
EXTT10=
EXTT11=
EXTT12=
EXTT13=
EXTT14=
EXTT15=
EXTT16=
EXTT17=
PLAYORDER=
